<svg width="358" height="358" viewBox="0 0 358 358" fill="none" xmlns="http://www.w3.org/2000/svg">
<path d="M251.606 340.018L239.62 358L235.198 355.909L220.648 348.884C106.549 291.335 -25.9202 146.711 4.39244 13.9767L6.11881 6.4675L13.8086 4.63815C19.3478 3.32667 25.4394 2.49712 31.0723 1.84258C45.7415 0.133108 60.6919 -0.298449 75.4301 0.185861C126.464 1.8258 176.965 14.6672 223.311 35.2456C260.058 51.5491 302.687 73.2927 332.642 100.205C340.65 107.398 353.24 120.28 356.792 130.743L358 134.246L357.014 137.821C353.763 149.61 349.43 161.694 345.099 173.123C334.852 200.156 322.493 226.74 308.056 251.926C291.115 281.481 273.413 312.106 252.334 339.086C252.087 339.397 251.838 339.707 251.606 340.018Z" fill="#94CB53"/>
</svg>
